<svg width="100%" height="100%" viewBox="0 0 2800 2800" version="1.1" xmlns="http://www.w3.org/2000/svg">
    <g transform="matrix(1,0,0,1,-100,-100)">
        <g>
            <g transform="matrix(50.6826,0,0,47.1765,-1034.13,-1956.5)">
                <path d="M70.908,76.175C69.567,76.175 68.289,76.623 67.257,77.432L60.052,73.266L67.257,69.104C68.29,69.914 69.568,70.361 70.908,70.361C74.176,70.361 76.834,67.702 76.834,64.434C76.834,62.075 75.417,59.982 73.351,59.041C73.382,58.794 73.398,58.545 73.398,58.293C73.398,55.025 70.739,52.367 67.472,52.367C64.204,52.367 61.545,55.026 61.545,58.293C61.545,59.066 61.698,59.83 61.988,60.538L50.003,67.461L38.012,60.538C38.302,59.83 38.455,59.067 38.455,58.293C38.455,55.025 35.796,52.367 32.528,52.367C29.26,52.367 26.602,55.026 26.602,58.293C26.602,58.544 26.618,58.794 26.649,59.041C24.583,59.982 23.166,62.075 23.166,64.434C23.166,67.702 25.825,70.361 29.092,70.361C30.433,70.361 31.711,69.913 32.743,69.104L39.954,73.267L32.743,77.432C31.711,76.622 30.432,76.175 29.092,76.175C25.824,76.175 23.166,78.834 23.166,82.101C23.166,84.46 24.583,86.553 26.649,87.494C26.618,87.741 26.602,87.991 26.602,88.242C26.602,91.51 29.261,94.168 32.528,94.168C35.796,94.168 38.455,91.509 38.455,88.242C38.455,87.468 38.302,86.705 38.012,85.997L50.004,79.07L61.988,85.997C61.698,86.705 61.545,87.468 61.545,88.242C61.545,91.51 64.204,94.168 67.472,94.168C70.74,94.168 73.398,91.509 73.398,88.242C73.398,87.991 73.382,87.741 73.351,87.494C75.417,86.553 76.834,84.46 76.834,82.101C76.834,78.834 74.176,76.175 70.908,76.175Z" style="fill:#fff;fill-rule:nonzero;"/>
                <path d="M70.908,76.175C74.176,76.175 76.834,78.834 76.834,82.101C76.834,84.46 75.417,86.553 73.351,87.494C73.382,87.741 73.398,87.991 73.398,88.242C73.398,91.509 70.74,94.168 67.472,94.168C64.204,94.168 61.545,91.51 61.545,88.242C61.545,87.468 61.698,86.705 61.988,85.997L50.004,79.07L38.012,85.997C38.302,86.705 38.455,87.468 38.455,88.242C38.455,91.509 35.796,94.168 32.528,94.168C29.261,94.168 26.602,91.51 26.602,88.242C26.602,87.991 26.618,87.741 26.649,87.494C24.583,86.553 23.166,84.46 23.166,82.101C23.166,78.834 25.824,76.175 29.092,76.175C30.432,76.175 31.711,76.622 32.743,77.432L39.954,73.267L32.743,69.104C31.711,69.913 30.433,70.361 29.092,70.361C25.825,70.361 23.166,67.702 23.166,64.434C23.166,62.075 24.583,59.982 26.649,59.041C26.618,58.794 26.602,58.544 26.602,58.293C26.602,55.026 29.26,52.367 32.528,52.367C35.796,52.367 38.455,55.025 38.455,58.293C38.455,59.067 38.302,59.83 38.012,60.538L50.003,67.461L61.988,60.538C61.698,59.83 61.545,59.066 61.545,58.293C61.545,55.026 64.204,52.367 67.472,52.367C70.739,52.367 73.398,55.025 73.398,58.293C73.398,58.545 73.382,58.794 73.351,59.041C75.417,59.982 76.834,62.075 76.834,64.434C76.834,67.702 74.176,70.361 70.908,70.361C69.568,70.361 68.29,69.914 67.257,69.104L60.052,73.266L67.257,77.432C68.289,76.623 69.567,76.175 70.908,76.175ZM70.908,77.541C69.843,77.541 68.826,77.893 68.007,78.536C67.611,78.846 67.085,78.884 66.654,78.635L59.449,74.469C59.037,74.231 58.78,73.769 58.78,73.266C58.78,72.763 59.038,72.301 59.45,72.063L66.655,67.901C67.086,67.652 67.611,67.691 68.007,68C68.827,68.644 69.844,68.995 70.908,68.995C73.451,68.995 75.562,66.977 75.562,64.434C75.562,62.617 74.446,61.024 72.855,60.299C72.327,60.058 72.014,59.469 72.091,58.858C72.114,58.672 72.126,58.483 72.126,58.293C72.126,55.75 70.014,53.733 67.472,53.733C64.929,53.733 62.817,55.751 62.817,58.293C62.817,58.877 62.933,59.453 63.152,59.988C63.419,60.64 63.175,61.404 62.59,61.741L50.605,68.664C50.229,68.881 49.777,68.882 49.401,68.664L37.41,61.741C36.825,61.404 36.581,60.64 36.848,59.988C37.067,59.453 37.183,58.877 37.183,58.293C37.183,55.75 35.071,53.733 32.528,53.733C29.985,53.733 27.874,55.751 27.874,58.293C27.874,58.483 27.886,58.672 27.909,58.858C27.986,59.469 27.673,60.058 27.145,60.299C25.554,61.024 24.438,62.617 24.438,64.434C24.438,66.977 26.55,68.995 29.092,68.995C30.157,68.995 31.174,68.643 31.993,68C32.389,67.691 32.914,67.652 33.345,67.901L40.556,72.064C40.968,72.302 41.226,72.764 41.226,73.267C41.226,73.77 40.969,74.232 40.556,74.47L33.345,78.635C32.914,78.884 32.388,78.845 31.993,78.535C31.173,77.892 30.156,77.541 29.092,77.541C26.549,77.541 24.438,79.559 24.438,82.101C24.438,83.918 25.554,85.511 27.145,86.236C27.673,86.477 27.986,87.066 27.909,87.677C27.886,87.863 27.874,88.052 27.874,88.242C27.874,90.785 29.986,92.802 32.528,92.802C35.071,92.802 37.183,90.784 37.183,88.242C37.183,87.658 37.067,87.082 36.848,86.547C36.581,85.895 36.825,85.131 37.41,84.794L49.402,77.867C49.778,77.649 50.23,77.649 50.607,77.867L62.591,84.794C63.175,85.132 63.419,85.895 63.152,86.547C62.933,87.082 62.817,87.658 62.817,88.242C62.817,90.785 64.929,92.802 67.472,92.802C70.015,92.802 72.126,90.784 72.126,88.242C72.126,88.052 72.114,87.863 72.091,87.677C72.014,87.066 72.327,86.477 72.855,86.236C74.446,85.511 75.562,83.918 75.562,82.101C75.562,79.559 73.451,77.541 70.908,77.541Z"/>
            </g>
            <g transform="matrix(1.20361,-0.218899,0.218899,1.20361,43.3522,491.658)">
                <path d="M513.737,693.571C551.954,513.08 643.566,374.52 1024,377.25C1404.43,379.981 1504.19,518.782 1536.93,692.032C1569.68,865.281 1524,1274.29 1525.33,1296.54C1530.26,1379.09 1347.18,1373.02 1305.28,1425.2C1266.24,1473.82 1293.5,1592.5 1273.92,1609.62C1201.02,1673.35 857.775,1686.82 771.57,1654.71C746.78,1645.48 759.995,1482.6 743.667,1456.42C714.791,1410.12 553.204,1421.46 518.867,1298.86C483.968,1174.26 478.814,858.509 513.737,693.571Z" style="fill:#fff;stroke:#000;stroke-width:1.2px;"/>
            </g>
            <g transform="matrix(20.3991,-3.70996,3.70996,20.3991,295.364,665.397)">
                <path d="M82.3,40.5C82.6,32.4 82,24.5 76.7,18.8C71.6,13.4 62.9,10.8 50,10.8C37.1,10.8 28.4,13.4 23.3,18.8C18,24.5 17.4,32.4 17.7,40.5C15.5,42.6 14.5,46 15.4,49.3C15.9,51 16.9,52.7 18.3,54.2L18.3,54.4C18.3,71.1 18.8,72.3 27.8,75C29.1,75.4 30.6,75.9 32.3,76.5C32.8,80.9 33.5,86.8 33.5,87C33.5,87.4 33.7,87.8 34,88.1C35,89 39.1,89.2 43.2,89.2C46,89.2 48.8,89.1 50.4,88.9C53.5,88.6 57.2,88.1 60.3,87.4C65.4,86.3 66.3,85.6 66.3,84.6C66.3,84.3 67,78.4 67.5,74C69.9,73.2 71.8,72.7 73.4,72.3C81.1,70.3 81.5,69.3 81.5,54.5L81.5,54.3C82.9,52.8 84,51.1 84.4,49.4C85.5,46 84.5,42.6 82.3,40.5ZM79.8,38.9C79.5,38.8 79.2,38.7 78.8,38.6C75.1,37.6 71.7,38.3 69.7,41.6C69.7,37.8 67,35.4 63.4,34.4C59,33.2 54.3,36.1 53,40.8C50.7,49.3 62,63.4 63.7,63.8C64.8,64.1 73.2,61.1 79,56.4C79,68.1 78.7,68.2 72.8,69.7C71,70.2 68.8,70.8 66,71.8L65.3,72.1L65.2,72.9C64.3,80.2 64,82.8 63.9,83.8C63.1,84.2 60.9,84.7 58.2,85.2L58.2,80.3C58.2,79.6 57.6,79.1 57,79.1C56.3,79.1 55.8,79.7 55.8,80.3L55.8,85.6C54.4,85.8 52.8,86 51.3,86.2L51.3,80.3C51.3,79.6 50.7,79.1 50.1,79.1C49.4,79.1 48.9,79.7 48.9,80.3L48.9,86.4C47.4,86.5 45.9,86.5 44.4,86.6L44.4,80.3C44.4,79.6 43.8,79.1 43.2,79.1C42.5,79.1 42,79.7 42,80.3L42,86.5C39.4,86.4 37.2,86.3 36.2,86.1C36.1,85 35.8,82.3 34.9,75.3L34.8,74.5L34.1,74.2C32,73.5 30.3,72.9 28.7,72.4C21.3,70.1 21,70 21,56.3C26.8,61 35.2,64 36.3,63.7C38,63.3 49.3,49.2 47,40.7C45.7,35.9 41.1,33.1 36.6,34.3C32.9,35.3 30.3,37.6 30.3,41.5C28.4,38.2 24.9,37.5 21.2,38.5C20.9,38.6 20.6,38.7 20.2,38.8C20.1,31.7 20.8,25.1 25.2,20.4C29.8,15.6 37.9,13.2 50,13.2C62.1,13.2 70.3,15.6 74.8,20.4C79.2,25.2 80,31.9 79.8,38.9Z" style="fill-rule:nonzero;"/>
                <path d="M50,58.5C49.3,58.5 48.6,58.9 48.3,59.6L44.7,67.2C44.4,67.8 44.5,68.5 44.8,69C45.1,69.5 45.7,69.9 46.4,69.9L53.6,69.9C54.2,69.9 54.8,69.6 55.2,69C55.5,68.5 55.6,67.8 55.3,67.2L51.7,59.6C51.4,58.9 50.7,58.5 50,58.5Z" style="fill-rule:nonzero;"/>
            </g>
        </g>
    </g>
</svg>
