<svg width="100%" height="100%" viewBox="0 0 100 100" version="1.1" xmlns="http://www.w3.org/2000/svg">
    <g transform="matrix(1.787,0,0,1.66338,-39.3502,-71.8719)">
        <path d="M36.677,71.375L32.743,69.104C31.711,69.913 30.433,70.361 29.092,70.361C25.825,70.361 23.166,67.702 23.166,64.434C23.166,62.075 24.583,59.982 26.649,59.041C26.618,58.794 26.602,58.544 26.602,58.293C26.602,55.026 29.26,52.367 32.528,52.367C35.796,52.367 38.455,55.025 38.455,58.293C38.455,59.067 38.302,59.83 38.012,60.538L38.496,60.817C40.039,59.023 42.693,57.613 47.207,56.767C55.568,55.2 58.737,57.711 60.374,61.47L61.988,60.538C61.698,59.83 61.545,59.066 61.545,58.293C61.545,55.026 64.204,52.367 67.472,52.367C70.739,52.367 73.398,55.025 73.398,58.293C73.398,58.545 73.382,58.794 73.351,59.041C75.417,59.982 76.834,62.075 76.834,64.434C76.834,67.702 74.176,70.361 70.908,70.361C69.568,70.361 68.29,69.914 67.257,69.104L62.476,71.866C62.598,72.944 62.7,73.963 62.785,74.846L67.257,77.432C68.289,76.623 69.567,76.175 70.908,76.175C74.176,76.175 76.834,78.834 76.834,82.101C76.834,84.46 75.417,86.553 73.351,87.494C73.382,87.741 73.398,87.991 73.398,88.242C73.398,91.509 70.74,94.168 67.472,94.168C64.204,94.168 61.545,91.51 61.545,88.242C61.545,87.468 61.698,86.705 61.988,85.997L58.183,83.798C58.258,85.165 58.737,86.682 58.464,87.049C57.008,89.013 48.915,90.949 46.729,90.53C46.101,90.409 45.711,86.193 45.21,85.601C44.583,84.859 42.501,85.163 40.862,84.351L38.012,85.997C38.302,86.705 38.455,87.468 38.455,88.242C38.455,91.509 35.796,94.168 32.528,94.168C29.261,94.168 26.602,91.51 26.602,88.242C26.602,87.991 26.618,87.741 26.649,87.494C24.583,86.553 23.166,84.46 23.166,82.101C23.166,78.834 25.824,76.175 29.092,76.175C30.432,76.175 31.711,76.622 32.743,77.432L37.171,74.875C36.97,73.701 36.801,72.512 36.677,71.375Z"/>
    </g>
</svg>
